<?xml version="1.0" encoding="UTF-8" standalone="no"?><!DOCTYPE svg PUBLIC "-//W3C//DTD SVG 1.1//EN" "http://www.w3.org/Graphics/SVG/1.1/DTD/svg11.dtd"><svg width="100%" height="100%" viewBox="0 0 9037 3386" version="1.1" xmlns="http://www.w3.org/2000/svg" xmlns:xlink="http://www.w3.org/1999/xlink" xml:space="preserve" xmlns:serif="http://www.serif.com/" style="fill-rule:evenodd;clip-rule:evenodd;stroke-linejoin:round;stroke-miterlimit:2;"><g><g><circle cx="1697.04" cy="1695.18" r="1214.43" style="fill:#fff;"/><path d="M1697.04,480.75c670.265,0 1214.44,544.167 1214.44,1214.43c-0,670.265 -544.172,1214.44 -1214.44,1214.44c-670.261,-0 -1214.43,-544.172 -1214.43,-1214.44c0,-670.266 544.172,-1214.43 1214.43,-1214.43Zm-0,117.075c-605.65,-0 -1097.36,491.708 -1097.36,1097.36c-0,605.649 491.708,1097.36 1097.36,1097.36c605.649,0 1097.36,-491.713 1097.36,-1097.36c0,-605.65 -491.713,-1097.36 -1097.36,-1097.36Z" style="fill:#fff;"/><path d="M1692.15,418.11c703.037,0 1273.82,570.776 1273.82,1273.82c0,703.042 -570.78,1273.82 -1273.82,1273.82c-703.042,0 -1273.82,-570.775 -1273.82,-1273.82c-0,-703.042 570.78,-1273.82 1273.82,-1273.82Zm-0,117.075c-638.426,-0 -1156.75,518.317 -1156.75,1156.74c0,638.426 518.322,1156.74 1156.75,1156.74c638.426,-0 1156.74,-518.317 1156.74,-1156.74c-0,-638.426 -518.317,-1156.74 -1156.74,-1156.74Z" style="fill:#0a425b;"/><path d="M1692.15,628.381c586.988,-0 1063.55,476.559 1063.55,1063.55c-0,586.988 -476.559,1063.55 -1063.55,1063.55c-586.988,-0 -1063.55,-476.559 -1063.55,-1063.55c-0,-586.988 476.559,-1063.55 1063.55,-1063.55Zm-0,520.331c-299.809,-0 -543.217,243.407 -543.217,543.216c0,299.809 243.408,543.216 543.217,543.216c299.809,0 543.216,-243.407 543.216,-543.216c-0,-299.809 -243.407,-543.216 -543.216,-543.216Z" style="fill:#0a425b;"/><g><path d="M1800.59,1246l-216.878,0l54.219,-473.149l108.439,-0l54.22,473.149Z" style="fill:#fff;"/><path d="M1800.59,2139.61l-216.878,0l54.219,473.15l108.439,-0l54.22,-473.15Z" style="fill:#fff;"/><path d="M2138.96,1801.24l-0,-216.878l716.533,54.219l0,108.439l-716.533,54.22Z" style="fill:#fff;"/><path d="M2047.9,1486.16l898.645,68.001l0,277.294l-898.645,68.001l-0,-413.296Zm91.056,315.085l716.533,-54.22l0,-108.439l-716.533,-54.219l-0,216.878Z" style="fill:#0a425b;"/><path d="M1245.35,1801.24l-0,-216.878l-716.534,54.219l0,108.439l716.534,54.22Z" style="fill:#fff;"/><path d="M437.76,1831.45l0,-277.294l898.645,-68.001l0,413.296l-898.645,-68.001Zm807.59,-30.21l-0,-216.878l-716.534,54.219l0,108.439l716.534,54.22Z" style="fill:#0a425b;"/><path d="M2084.77,1453.55l-153.358,-153.358l372.905,-296.226l76.68,76.679l-296.227,372.905Z" style="fill:#fff;"/><path d="M1452.89,2085.42l-153.359,-153.354l-296.231,372.906l76.679,76.679l372.911,-296.231Z" style="fill:#fff;"/><path d="M1931.41,2085.42l153.358,-153.354l296.227,372.906l-76.68,76.679l-372.905,-296.231Z" style="fill:#fff;"/><path d="M1299.54,1453.55l153.359,-153.358l-372.911,-296.226l-76.679,76.679l296.231,372.905Z" style="fill:#fff;"/></g><circle cx="1692.15" cy="1691.93" r="558.633" style="fill:#fff;"/><path d="M1692.15,1133.3c308.318,0 558.628,250.315 558.628,558.633c-0,308.318 -250.31,558.633 -558.628,558.633c-308.318,-0 -558.633,-250.315 -558.633,-558.633c-0,-308.318 250.315,-558.633 558.633,-558.633Zm-0,117.075c-243.703,-0 -441.559,197.856 -441.559,441.558c0,243.702 197.856,441.558 441.559,441.558c243.702,0 441.553,-197.856 441.553,-441.558c0,-243.702 -197.851,-441.558 -441.553,-441.558Z" style="fill:#fff;"/><path d="M1692.15,1386.44c168.606,0 305.489,136.884 305.489,305.49c0,168.606 -136.883,305.489 -305.489,305.489c-168.606,0 -305.49,-136.883 -305.49,-305.489c0,-168.606 136.884,-305.49 305.49,-305.49Zm-0,117.075c-103.991,-0 -188.415,84.425 -188.415,188.415c-0,103.99 84.424,188.415 188.415,188.415c103.99,-0 188.415,-84.425 188.415,-188.415c-0,-103.99 -84.425,-188.415 -188.415,-188.415Z" style="fill:#0a425b;"/></g><g><circle cx="1692.15" cy="147.711" r="147.711" style="fill:#0a425b;"/><path d="M1546.47,168.161l292.475,0l-73.12,258.304l-146.235,-0l-73.12,-258.304Z" style="fill:#0a425b;"/></g><g><circle cx="1692.15" cy="3236.59" r="147.711" style="fill:#0a425b;"/><path d="M1546.47,3216.14l292.475,-0l-73.12,-258.3l-146.235,0l-73.12,258.3Z" style="fill:#0a425b;"/></g><g><path d="M0,1692.15c0,-81.526 66.189,-147.716 147.711,-147.716c81.526,0 147.715,66.19 147.715,147.716c-0,81.526 -66.189,147.71 -147.715,147.71c-81.522,0 -147.711,-66.184 -147.711,-147.71Z" style="fill:#0a425b;"/><path d="M168.161,1837.84l0,-292.475l258.304,73.12l-0,146.235l-258.304,73.12Z" style="fill:#0a425b;"/></g><g><path d="M3384.31,1692.15c0,-81.526 -66.189,-147.716 -147.715,-147.716c-81.521,0 -147.71,66.19 -147.71,147.716c-0,81.526 66.189,147.71 147.71,147.71c81.526,0 147.715,-66.184 147.715,-147.71Z" style="fill:#0a425b;"/><path d="M3216.14,1837.84l-0,-292.475l-258.3,73.12l0,146.235l258.3,73.12Z" style="fill:#0a425b;"/></g><g><path d="M495.618,495.618c57.648,-57.647 151.251,-57.647 208.899,0c57.647,57.648 57.647,151.251 -0,208.899c-57.648,57.647 -151.251,57.647 -208.899,-0c-57.647,-57.648 -57.647,-151.251 0,-208.899Z" style="fill:#0a425b;"/><path d="M511.517,717.54l206.81,-206.81l130.945,234.351l-103.404,103.405l-234.351,-130.946Z" style="fill:#0a425b;"/></g><g><path d="M2888.68,2888.68c57.648,-57.643 57.648,-151.246 0,-208.894c-57.643,-57.647 -151.246,-57.647 -208.894,0c-57.647,57.648 -57.647,151.251 0,208.894c57.648,57.648 151.251,57.648 208.894,0Z" style="fill:#0a425b;"/><path d="M2666.76,2872.79l206.815,-206.81l-234.351,-130.945l-103.409,103.405l130.945,234.35Z" style="fill:#0a425b;"/></g><g><path d="M495.618,2888.68c-57.647,-57.643 -57.647,-151.246 0,-208.894c57.648,-57.647 151.251,-57.647 208.899,0c57.647,57.648 57.647,151.251 -0,208.894c-57.648,57.648 -151.251,57.648 -208.899,0Z" style="fill:#0a425b;"/><path d="M717.54,2872.79l-206.81,-206.81l234.351,-130.945l103.405,103.405l-130.946,234.35Z" style="fill:#0a425b;"/></g><g><path d="M2888.68,495.618c-57.643,-57.647 -151.246,-57.647 -208.894,0c-57.647,57.648 -57.647,151.251 0,208.899c57.648,57.647 151.251,57.647 208.894,-0c57.648,-57.648 57.648,-151.251 0,-208.899Z" style="fill:#0a425b;"/><path d="M2872.79,717.54l-206.81,-206.81l-130.945,234.351l103.405,103.405l234.35,-130.946Z" style="fill:#0a425b;"/></g><g transform="matrix(1875,0,0,1875,9131.25,2361.32)"></g><text x="3529.14px" y="2361.32px" style="font-family:'Righteous-Regular', 'Righteous';font-size:1875px;fill:#10425b;">Parley</text></g></svg>