<?xml version="1.0" encoding="UTF-8" standalone="no"?><!DOCTYPE svg PUBLIC "-//W3C//DTD SVG 1.1//EN" "http://www.w3.org/Graphics/SVG/1.1/DTD/svg11.dtd"><svg width="100%" height="100%" viewBox="0 0 723 723" version="1.1" xmlns="http://www.w3.org/2000/svg" xmlns:xlink="http://www.w3.org/1999/xlink" xml:space="preserve" xmlns:serif="http://www.serif.com/" style="fill-rule:evenodd;clip-rule:evenodd;stroke-linejoin:round;stroke-miterlimit:2;"><g><circle cx="362.385" cy="361.988" r="259.329" style="fill:#fff;"/><path d="M362.385,102.659c143.128,-0 259.33,116.201 259.33,259.329c-0,143.128 -116.202,259.33 -259.33,259.33c-143.127,-0 -259.329,-116.202 -259.329,-259.33c-0,-143.128 116.202,-259.329 259.329,-259.329Zm0,25c-129.33,-0 -234.329,104.999 -234.329,234.329c-0,129.33 104.999,234.33 234.329,234.33c129.33,-0 234.33,-105 234.33,-234.33c-0,-129.33 -105,-234.329 -234.33,-234.329Z" style="fill:#fff;"/><path d="M361.341,89.283c150.126,-0 272.01,121.883 272.01,272.01c0,150.127 -121.884,272.01 -272.01,272.01c-150.127,0 -272.011,-121.883 -272.011,-272.01c0,-150.127 121.884,-272.01 272.011,-272.01Zm-0,25c-136.329,-0 -247.011,110.681 -247.011,247.01c0,136.329 110.682,247.01 247.011,247.01c136.329,0 247.01,-110.681 247.01,-247.01c0,-136.329 -110.681,-247.01 -247.01,-247.01Z" style="fill:#0a425b;"/><path d="M361.341,134.184c125.345,-0 227.109,101.764 227.109,227.109c0,125.345 -101.764,227.109 -227.109,227.109c-125.345,0 -227.109,-101.764 -227.109,-227.109c-0,-125.345 101.764,-227.109 227.109,-227.109Zm-0,111.111c-64.021,-0 -115.998,51.977 -115.998,115.998c-0,64.021 51.977,115.998 115.998,115.998c64.021,0 115.998,-51.977 115.998,-115.998c0,-64.021 -51.977,-115.998 -115.998,-115.998Z" style="fill:#0a425b;"/><g><path d="M384.497,266.07l-46.312,0l11.578,-101.036l23.156,0l11.578,101.036Z" style="fill:#fff;"/><path d="M384.497,456.891l-46.312,-0l11.578,101.036l23.156,-0l11.578,-101.036Z" style="fill:#fff;"/><path d="M456.751,384.636l0,-46.312l153.008,11.578l-0,23.156l-153.008,11.578Z" style="fill:#fff;"/><path d="M437.307,317.353l191.896,14.521l0,59.213l-191.896,14.521l-0,-88.255Zm19.444,67.283l153.008,-11.578l-0,-23.156l-153.008,-11.578l0,46.312Z" style="fill:#0a425b;"/><path d="M265.931,384.636l-0,-46.312l-153.008,11.578l0,23.156l153.008,11.578Z" style="fill:#fff;"/><path d="M93.479,391.087l-0,-59.213l191.896,-14.521l0,88.255l-191.896,-14.521Zm172.452,-6.451l-0,-46.312l-153.008,11.578l0,23.156l153.008,11.578Z" style="fill:#0a425b;"/><path d="M445.18,310.389l-32.748,-32.748l79.63,-63.256l16.374,16.374l-63.256,79.63Z" style="fill:#fff;"/><path d="M310.25,445.319l-32.748,-32.747l-63.257,79.63l16.374,16.374l79.631,-63.257Z" style="fill:#fff;"/><path d="M412.432,445.319l32.748,-32.747l63.256,79.63l-16.374,16.374l-79.63,-63.257Z" style="fill:#fff;"/><path d="M277.502,310.389l32.748,-32.748l-79.631,-63.256l-16.374,16.374l63.257,79.63Z" style="fill:#fff;"/></g><circle cx="361.341" cy="361.293" r="119.29" style="fill:#fff;"/><path d="M361.341,242.003c65.838,0 119.289,53.452 119.289,119.29c0,65.838 -53.451,119.29 -119.289,119.29c-65.838,-0 -119.29,-53.452 -119.29,-119.29c0,-65.838 53.452,-119.29 119.29,-119.29Zm-0,25c-52.04,0 -94.29,42.25 -94.29,94.29c0,52.04 42.25,94.29 94.29,94.29c52.04,-0 94.289,-42.25 94.289,-94.29c0,-52.04 -42.249,-94.29 -94.289,-94.29Z" style="fill:#fff;"/><path d="M361.341,296.059c36.004,-0 65.234,29.23 65.234,65.234c-0,36.004 -29.23,65.234 -65.234,65.234c-36.004,0 -65.234,-29.23 -65.234,-65.234c-0,-36.004 29.23,-65.234 65.234,-65.234Zm-0,25c-22.206,-0 -40.234,18.028 -40.234,40.234c-0,22.206 18.028,40.234 40.234,40.234c22.206,0 40.234,-18.028 40.234,-40.234c-0,-22.206 -18.028,-40.234 -40.234,-40.234Z" style="fill:#0a425b;"/></g><g><circle cx="361.341" cy="31.542" r="31.542" style="fill:#0a425b;"/><path d="M330.232,35.909l62.455,0l-15.614,55.158l-31.227,0l-15.614,-55.158Z" style="fill:#0a425b;"/></g><g><circle cx="361.341" cy="691.139" r="31.542" style="fill:#0a425b;"/><path d="M330.232,686.772l62.455,0l-15.614,-55.157l-31.227,-0l-15.614,55.157Z" style="fill:#0a425b;"/></g><g><path d="M0,361.341c0,-17.409 14.134,-31.543 31.542,-31.543c17.409,0 31.543,14.134 31.543,31.543c-0,17.409 -14.134,31.542 -31.543,31.542c-17.408,0 -31.542,-14.133 -31.542,-31.542Z" style="fill:#0a425b;"/><path d="M35.909,392.45l0,-62.455l55.158,15.614l0,31.227l-55.158,15.614Z" style="fill:#0a425b;"/></g><g><path d="M722.682,361.341c-0,-17.409 -14.134,-31.543 -31.543,-31.543c-17.408,0 -31.542,14.134 -31.542,31.543c-0,17.409 14.134,31.542 31.542,31.542c17.409,0 31.543,-14.133 31.543,-31.542Z" style="fill:#0a425b;"/><path d="M686.772,392.45l0,-62.455l-55.157,15.614l-0,31.227l55.157,15.614Z" style="fill:#0a425b;"/></g><g><path d="M105.834,105.834c12.31,-12.31 32.298,-12.31 44.608,0c12.31,12.31 12.31,32.298 -0,44.608c-12.31,12.31 -32.298,12.31 -44.608,-0c-12.31,-12.31 -12.31,-32.298 0,-44.608Z" style="fill:#0a425b;"/><path d="M109.229,153.223l44.162,-44.162l27.962,50.043l-22.081,22.081l-50.043,-27.962Z" style="fill:#0a425b;"/></g><g><path d="M616.847,616.847c12.31,-12.309 12.31,-32.297 0,-44.607c-12.309,-12.31 -32.297,-12.31 -44.607,-0c-12.31,12.31 -12.31,32.298 -0,44.607c12.31,12.31 32.298,12.31 44.607,0Z" style="fill:#0a425b;"/><path d="M569.458,613.453l44.163,-44.162l-50.043,-27.962l-22.082,22.081l27.962,50.043Z" style="fill:#0a425b;"/></g><g><path d="M105.834,616.847c-12.31,-12.309 -12.31,-32.297 0,-44.607c12.31,-12.31 32.298,-12.31 44.608,-0c12.31,12.31 12.31,32.298 -0,44.607c-12.31,12.31 -32.298,12.31 -44.608,0Z" style="fill:#0a425b;"/><path d="M153.223,613.453l-44.162,-44.162l50.043,-27.962l22.081,22.081l-27.962,50.043Z" style="fill:#0a425b;"/></g><g><path d="M616.847,105.834c-12.309,-12.31 -32.297,-12.31 -44.607,0c-12.31,12.31 -12.31,32.298 -0,44.608c12.31,12.31 32.298,12.31 44.607,-0c12.31,-12.31 12.31,-32.298 0,-44.608Z" style="fill:#0a425b;"/><path d="M613.453,153.223l-44.162,-44.162l-27.962,50.043l22.081,22.081l50.043,-27.962Z" style="fill:#0a425b;"/></g></svg>